<svg width="309" height="154" viewBox="0 0 309 154" fill="none" xmlns="http://www.w3.org/2000/svg">
<path d="M8.31745 51.4515C8.31745 51.4515 43.7727 34.1371 64.7921 31.9294C101.817 28.0405 120.977 48.5517 157.89 51.6803C218.005 56.7753 299.169 30 299.169 30L299.169 114C299.169 119.523 294.692 124 289.169 124L19.0521 124C13.575 124 9.11703 119.594 9.05277 114.117L8.31745 51.4515Z" fill="black" fill-opacity="0.1"/>
<path d="M9.66859 30C9.66859 30 48.7294 50.14 69.7487 47.9322C106.774 44.0433 150.352 30.6654 187.266 33.794C247.38 38.8889 299.169 60 299.169 60L299.169 114C299.169 119.523 294.691 124 289.169 124L19.2219 124C13.6783 124 9.19258 119.49 9.22207 113.947L9.66859 30Z" fill="black" fill-opacity="0.15"/>
</svg>
