<svg width="26" height="26" viewBox="0 0 26 26" fill="none" xmlns="http://www.w3.org/2000/svg">
<g clip-path="url(#clip0_312_761)">
<path d="M26 13.2985C26 12.4148 25.9269 11.5264 25.771 10.657H13.2607V15.6631H20.4248C20.1275 17.2776 19.1723 18.7059 17.7736 19.6134V22.8617H22.0476C24.5575 20.5975 26 17.2537 26 13.2985Z" fill="#4285F4"/>
<path d="M13.2607 26C16.8379 26 19.8546 24.8488 22.0525 22.8617L17.7785 19.6134C16.5893 20.4064 15.0542 20.8554 13.2656 20.8554C9.80545 20.8554 6.87161 18.5673 5.81894 15.4911H1.40845V18.8396C3.65999 23.2295 8.24594 26 13.2607 26Z" fill="#34A853"/>
<path d="M5.81405 15.4911C5.25848 13.8765 5.25848 12.1282 5.81405 10.5137V7.16516H1.40843C-0.472732 10.8385 -0.472732 15.1663 1.40843 18.8396L5.81405 15.4911Z" fill="#FBBC04"/>
<path d="M13.2607 5.14459C15.1517 5.11593 16.9792 5.81334 18.3487 7.09351L22.1353 3.38196C19.7376 1.17509 16.5552 -0.0382155 13.2607 -1.32562e-06C8.24594 -1.32562e-06 3.65999 2.77053 1.40845 7.16516L5.81407 10.5137C6.86187 7.43266 9.80058 5.14459 13.2607 5.14459Z" fill="#EA4335"/>
</g>
<defs>
<clipPath id="clip0_312_761">
<rect width="26" height="26" fill="white"/>
</clipPath>
</defs>
</svg>
