<svg width="743" height="482" viewBox="0 0 743 482" fill="none" xmlns="http://www.w3.org/2000/svg">
<g clip-path="url(#clip0_312_967)">
<path d="M23.5481 369.933C27.2302 332.331 49.4854 294.796 84.8959 281.667C71.811 320.613 72.9169 362.933 88.0181 401.142C93.8954 415.856 101.964 431.609 97.1898 446.718C94.2195 456.119 86.5449 463.452 77.8748 468.139C69.2042 472.825 59.508 475.204 49.9327 477.537L48.0785 479.155C31.8918 445.019 19.8659 407.535 23.5481 369.933Z" fill="#F0F0F0"/>
<path d="M85.2689 282.367C65.2756 305.976 52.6919 336.129 50.4917 367.04C50.016 373.723 50.1148 380.544 51.7426 387.077C53.3781 393.432 56.6848 399.233 61.3192 403.878C65.5534 408.295 70.3957 412.323 73.4829 417.693C76.7369 423.353 77.0262 429.873 75.0599 436.027C72.654 443.557 67.6874 449.772 62.6194 455.682C56.9923 462.243 51.0436 468.969 48.8022 477.531C48.5306 478.569 46.9374 478.086 47.2086 477.051C51.1084 462.153 65.2355 453.381 71.73 439.885C74.7605 433.588 75.9125 426.339 72.7487 419.858C69.9821 414.19 64.9922 410.032 60.6663 405.597C56.1242 400.939 52.6004 395.791 50.6907 389.518C48.7372 383.101 48.3716 376.27 48.6744 369.604C49.4738 354.493 52.6429 339.602 58.0657 325.477C64.1654 309.321 72.9824 294.328 84.1355 281.147C84.8261 280.331 85.9551 281.556 85.2689 282.367Z" fill="white"/>
<path d="M50.6769 356.955C45.503 355.84 40.8936 352.922 37.6719 348.721C34.4502 344.52 32.8259 339.31 33.0892 334.022C33.1019 333.806 33.1978 333.604 33.3566 333.458C33.5154 333.311 33.7248 333.232 33.9406 333.238C34.1564 333.243 34.3617 333.331 34.5134 333.485C34.6651 333.639 34.7512 333.845 34.7536 334.061C34.4993 338.985 36.0128 343.838 39.0208 347.744C42.0289 351.65 46.3334 354.351 51.1574 355.361C52.2055 355.581 51.719 357.174 50.6769 356.955Z" fill="white"/>
<path d="M58.8774 401.921C68.0189 396.131 74.6433 387.108 77.43 376.649C77.7052 375.612 79.2985 376.094 79.0236 377.129C76.1034 388.008 69.1905 397.384 59.6645 403.388C58.7561 403.96 57.974 402.489 58.8774 401.921Z" fill="white"/>
<path d="M65.75 310.858C67.6621 311.706 69.7549 312.067 71.8406 311.906C73.9262 311.745 75.9393 311.069 77.6991 309.938C78.5998 309.355 79.381 310.826 78.4862 311.405C76.5361 312.646 74.3119 313.39 72.008 313.573C69.704 313.755 67.3905 313.37 65.2695 312.452C65.0624 312.382 64.8895 312.236 64.7861 312.043C64.6828 311.851 64.6566 311.626 64.713 311.414C64.7777 311.204 64.9229 311.027 65.117 310.923C65.3112 310.818 65.5387 310.795 65.75 310.858Z" fill="white"/>
<path d="M195.546 345.771C194.994 346.151 194.442 346.531 193.889 346.925C186.494 352.072 179.528 357.811 173.062 364.086C172.554 364.563 172.047 365.054 171.554 365.545C156.136 380.829 143.688 398.844 134.844 418.674C131.331 426.568 128.424 434.719 126.148 443.054C123.005 454.566 120.513 467.297 113.945 476.818C113.271 477.819 112.536 478.777 111.744 479.687L50.1947 481.292C50.053 481.226 49.911 481.173 49.7686 481.107L47.314 481.283C47.4014 480.845 47.5015 480.393 47.5889 479.955C47.6385 479.7 47.7018 479.446 47.7515 479.191C47.7889 479.021 47.8271 478.852 47.8511 478.696C47.8634 478.64 47.8763 478.583 47.8889 478.541C47.913 478.386 47.9518 478.244 47.9763 478.103C48.5285 475.572 49.0995 473.04 49.6893 470.509C49.6889 470.494 49.6889 470.494 49.7023 470.48C54.245 451.2 60.4365 432.129 69.3243 414.605C69.5919 414.078 69.8585 413.537 70.1541 413.009C74.2042 405.132 78.891 397.6 84.1676 390.487C87.0695 386.601 90.166 382.865 93.4455 379.293C101.937 370.079 111.824 362.259 122.744 356.119C144.516 343.883 169.956 338.749 193.734 345.256C194.342 345.423 194.937 345.59 195.546 345.771Z" fill="#F0F0F0"/>
<path d="M195.428 346.556C165.256 353.364 137.063 369.86 116.704 393.215C112.303 398.265 108.277 403.771 105.645 409.967C103.127 416.026 102.276 422.65 103.181 429.15C103.904 435.227 105.346 441.36 104.579 447.507C103.771 453.987 100.078 459.367 94.8051 463.096C88.353 467.659 80.647 469.63 73.0443 471.296C64.6029 473.145 55.8056 474.932 48.8631 480.419C48.0219 481.083 47.0401 479.739 47.88 479.075C59.9587 469.529 76.5176 471.035 89.8246 464.171C96.0338 460.969 101.316 455.874 102.69 448.794C103.892 442.602 102.41 436.277 101.625 430.129C100.801 423.675 101.086 417.442 103.336 411.283C105.638 404.982 109.457 399.308 113.711 394.168C123.442 382.584 134.934 372.604 147.764 364.592C162.357 355.366 178.419 348.706 195.257 344.9C196.299 344.665 196.463 346.323 195.428 346.556Z" fill="white"/>
<path d="M122.922 385.274C119.461 381.268 117.537 376.161 117.493 370.866C117.449 365.572 119.287 360.433 122.68 356.37C123.369 355.55 124.675 356.583 123.985 357.404C120.818 361.182 119.107 365.969 119.158 370.899C119.209 375.83 121.02 380.579 124.265 384.291C124.969 385.098 123.622 386.077 122.922 385.274Z" fill="white"/>
<path d="M102.409 426.117C113.192 427 123.912 423.786 132.431 417.113C133.274 416.452 134.256 417.796 133.414 418.457C124.536 425.384 113.374 428.707 102.155 427.762C101.085 427.671 101.346 426.026 102.409 426.117Z" fill="white"/>
<path d="M162.697 357.548C163.713 359.377 165.168 360.925 166.929 362.053C168.691 363.181 170.706 363.854 172.792 364.011C173.861 364.088 173.6 365.733 172.537 365.656C170.233 365.472 168.01 364.727 166.06 363.485C164.111 362.243 162.495 360.542 161.354 358.531C161.231 358.351 161.181 358.13 161.214 357.914C161.248 357.698 161.362 357.502 161.534 357.368C161.713 357.238 161.935 357.185 162.153 357.218C162.371 357.252 162.566 357.37 162.697 357.548Z" fill="white"/>
<path d="M556.783 32.9915C555.864 30.2767 544.34 21.0486 551.402 19.4975L557.193 27.2227L583.817 0.586426L586.495 3.26542L556.783 32.9915Z" fill="#1A375A"/>
<path d="M556.783 123.566C555.864 120.851 544.34 111.623 551.402 110.072L557.193 117.797L583.817 91.1611L586.495 93.8401L556.783 123.566Z" fill="#1A375A"/>
<path d="M556.783 215.435C555.864 212.72 544.34 203.492 551.402 201.941L557.193 209.666L583.817 183.03L586.495 185.709L556.783 215.435Z" fill="#1A375A"/>
<path d="M532.266 141.161C536.804 141.161 540.482 137.481 540.482 132.942C540.482 128.402 536.804 124.722 532.266 124.722C527.729 124.722 524.051 128.402 524.051 132.942C524.051 137.481 527.729 141.161 532.266 141.161Z" fill="#3F3D56"/>
<path d="M532.266 51.5682C536.804 51.5682 540.482 47.8881 540.482 43.3486C540.482 38.8091 536.804 35.129 532.266 35.129C527.729 35.129 524.051 38.8091 524.051 43.3486C524.051 47.8881 527.729 51.5682 532.266 51.5682Z" fill="#3F3D56"/>
<path d="M743 24.4435H610.727V26.0874H743V24.4435Z" fill="#3F3D56"/>
<path d="M536.374 236.668C540.912 236.668 544.59 232.988 544.59 228.448C544.59 223.909 540.912 220.229 536.374 220.229C531.837 220.229 528.159 223.909 528.159 228.448C528.159 232.988 531.837 236.668 536.374 236.668Z" fill="#3F3D56"/>
<path d="M743 115.018H610.727V116.662H743V115.018Z" fill="#3F3D56"/>
<path d="M743 206.887H610.727V208.531H743V206.887Z" fill="#3F3D56"/>
<path d="M577.534 227.682H536.455V185.762H564.389V187.406H538.098V226.038H575.891V207.133H577.534V227.682Z" fill="#3F3D56"/>
<path d="M577.534 135.623H536.455V93.7031H564.389V95.347H538.098V133.979H575.891V115.074H577.534V135.623Z" fill="#3F3D56"/>
<path d="M577.534 41.9198H536.455V0H564.389V1.64391H538.098V40.2759H575.891V21.3709H577.534V41.9198Z" fill="#3F3D56"/>
<path d="M309.327 149.408C309.327 149.408 298.348 195.784 311.766 195.784C325.185 195.784 356.901 143.306 356.901 143.306L345.922 129.882L326.216 157.253L325.185 143.306L309.327 149.408Z" fill="#A0616A"/>
<path d="M353.975 145.322C359.874 145.322 364.656 140.538 364.656 134.637C364.656 128.736 359.874 123.952 353.975 123.952C348.076 123.952 343.295 128.736 343.295 134.637C343.295 140.538 348.076 145.322 353.975 145.322Z" fill="#A0616A"/>
<path d="M300.018 465.267L314.234 465.266L320.998 410.404L300.015 410.405L300.018 465.267Z" fill="#A0616A"/>
<path d="M299.517 480.105L343.236 480.103V479.55C343.235 475.035 341.442 470.705 338.251 467.512C335.06 464.32 330.732 462.526 326.219 462.526H326.218L318.232 456.464L303.333 462.527L299.517 462.527L299.517 480.105Z" fill="#2F2E41"/>
<path d="M147.093 447.522L159.813 453.872L190.353 407.806L171.578 398.432L147.093 447.522Z" fill="#A0616A"/>
<path d="M140.022 460.574L179.14 480.105L179.386 479.61C181.401 475.57 181.73 470.894 180.3 466.612C178.87 462.33 175.798 458.791 171.76 456.775L171.759 456.774L167.319 447.783L151.282 446.551L147.867 444.846L140.022 460.574Z" fill="#2F2E41"/>
<path d="M468.174 480.158H0V482H468.174V480.158Z" fill="#CCCCCC"/>
<path d="M208.103 233.541C208.103 233.541 202.422 301.885 201.202 316.53C200.366 325.711 198.315 334.739 195.103 343.379C195.103 343.379 192.663 348.261 192.663 353.143L165.013 403.417C165.013 403.417 156.564 409.63 157.784 414.512C159.004 419.394 152.69 422.322 152.69 422.322L181.807 427.937C181.807 427.937 180.588 424.275 184.247 423.055C187.907 421.834 190.82 411.249 190.82 411.249L231.698 344.6L260.974 283.579C260.974 283.579 278.052 338.498 281.712 344.6C281.712 344.6 295.13 412.943 297.57 419.045C300.01 425.147 301.229 425.147 300.01 427.588C298.79 430.029 298.79 432.47 300.01 433.69C301.229 434.911 324.406 433.69 324.406 433.69L318.307 347.041L307.329 243.305L251.216 226.219L208.103 233.541Z" fill="#2F2E41"/>
<path d="M263.041 70.3856C277.189 70.3856 288.658 58.9113 288.658 44.7569C288.658 30.6025 277.189 19.1282 263.041 19.1282C248.893 19.1282 237.424 30.6025 237.424 44.7569C237.424 58.9113 248.893 70.3856 263.041 70.3856Z" fill="#A0616A"/>
<path d="M309.768 107.839L279.273 89.3545C279.273 89.3545 278.428 77.8761 269.739 77.336C265.377 77.0648 258.831 76.6502 249.007 76.0166C246.931 75.8826 245.53 87.2463 243.151 87.0921L210.961 95.635L215.84 178.623C215.84 178.623 208.521 211.575 210.961 217.677C213.4 223.779 204.861 226.219 207.301 227.44C209.741 228.66 207.301 237.203 207.301 237.203C207.301 237.203 254.875 261.612 307.329 243.305L302.449 227.44C303.113 225.366 303.238 223.157 302.811 221.021C302.384 218.886 301.42 216.895 300.01 215.236C300.01 215.236 304.889 207.913 298.79 201.811C298.79 201.811 301.229 190.827 295.13 185.946L293.91 168.86L297.57 160.317L309.768 107.839Z" fill="#E6E6E6"/>
<path d="M240.812 59.3979L240.096 57.7339C240.004 57.5188 230.944 36.0925 238.974 22.8762C242.692 16.7577 249.451 13.3033 259.063 12.6097C274.104 11.5217 284.398 15.0912 289.668 23.2117C290.551 24.588 291.048 26.177 291.105 27.8117C291.163 29.4464 290.779 31.0663 289.994 32.5013C289.209 33.9363 288.053 35.1332 286.646 35.9662C285.239 36.7992 283.633 37.2375 281.998 37.2351H281.796L279.033 33.6451L278.872 33.9942C277.871 36.1599 275.573 37.3455 272.882 37.0858C272.424 37.0529 272.019 37.4482 271.693 38.2943C271.583 38.6644 271.376 38.9981 271.093 39.2605C270.81 39.5228 270.462 39.7041 270.085 39.7853C268.096 40.1726 265.262 37.6666 263.993 36.4176C263.944 36.7051 263.834 36.9787 263.67 37.2199C263.506 37.4611 263.293 37.6644 263.044 37.8159C261.707 38.5877 259.626 37.5795 259.028 37.2584C254.27 38.2698 251.19 37.9993 249.871 36.4553C248.976 42.7874 247.056 54.1848 244.754 54.8165C244.513 54.8719 244.261 54.8484 244.035 54.7494C243.809 54.6505 243.62 54.4814 243.498 54.2671C242.943 53.547 242.448 53.1883 242.138 53.289C241.389 53.5274 240.947 55.9949 240.884 57.5874L240.812 59.3979Z" fill="#2F2E41"/>
<path d="M296.35 109.06L308.519 107.082C317.284 115.508 323.255 126.421 325.626 138.35C329.286 157.876 330.506 161.537 330.506 161.537L301.229 168.86L285.371 138.35L296.35 109.06Z" fill="#E6E6E6"/>
<path d="M242.354 134.458L234.834 229.833L426.741 244.978L434.261 149.603L242.354 134.458Z" fill="white"/>
<path d="M262.857 141.847C258.16 138.492 252.198 138.249 249.92 138.297C250.615 140.467 252.774 146.033 257.471 149.39C262.178 152.754 268.134 152.989 270.408 152.942C269.713 150.773 267.554 145.205 262.857 141.847Z" fill="#1A375A"/>
<path d="M281.384 202.536L250.569 200.104C249.658 200.032 248.743 200.141 247.874 200.423C247.005 200.705 246.201 201.156 245.506 201.749C244.811 202.342 244.24 203.067 243.826 203.881C243.411 204.695 243.16 205.583 243.089 206.494C243.017 207.404 243.125 208.321 243.407 209.19C243.689 210.059 244.14 210.864 244.733 211.559C245.326 212.254 246.05 212.825 246.863 213.24C247.677 213.655 248.565 213.905 249.475 213.977L280.29 216.409C282.129 216.554 283.95 215.963 285.353 214.764C286.755 213.566 287.625 211.86 287.77 210.02C287.915 208.18 287.324 206.358 286.126 204.955C284.928 203.551 283.222 202.681 281.384 202.536Z" fill="#1A375A"/>
<path d="M426.696 140.333L253.927 126.696C251.917 126.538 249.896 126.777 247.979 127.4C246.062 128.023 244.287 129.018 242.754 130.328C241.221 131.638 239.961 133.237 239.046 135.033C238.131 136.83 237.578 138.79 237.42 140.8L230.776 225.01C230.456 229.072 231.762 233.094 234.406 236.192C237.05 239.291 240.816 241.212 244.875 241.533L417.644 255.169C419.654 255.328 421.675 255.088 423.592 254.465C425.509 253.842 427.284 252.847 428.817 251.538C430.35 250.228 431.61 248.629 432.525 246.832C433.44 245.035 433.993 243.076 434.151 241.065L440.465 161.027L440.592 159.392L440.793 156.847C440.952 154.837 440.712 152.815 440.09 150.897C439.467 148.979 438.472 147.202 437.163 145.669C435.854 144.135 434.256 142.875 432.46 141.959C430.664 141.044 428.705 140.491 426.696 140.333ZM421.594 213.6L420.499 227.474C420.299 229.924 419.138 232.195 417.268 233.791C415.399 235.387 412.974 236.177 410.524 235.99L387.41 234.168C384.961 233.967 382.691 232.805 381.096 230.935C379.501 229.065 378.711 226.639 378.898 224.188L379.993 210.314C380.194 207.864 381.356 205.593 383.225 203.998C385.094 202.402 387.518 201.611 389.968 201.798L413.074 203.622C415.523 203.823 417.793 204.985 419.389 206.854C420.986 208.724 421.778 211.148 421.594 213.6ZM241.56 206.366C241.739 204.121 242.801 202.039 244.513 200.576C246.225 199.114 248.446 198.39 250.691 198.565L281.504 200.998C282.618 201.084 283.703 201.389 284.698 201.895C285.694 202.4 286.58 203.097 287.306 203.946C288.032 204.795 288.583 205.778 288.929 206.84C289.275 207.902 289.408 209.022 289.322 210.135C289.235 211.249 288.93 212.334 288.423 213.33C287.917 214.325 287.219 215.211 286.371 215.937C285.522 216.662 284.539 217.213 283.477 217.559C282.415 217.904 281.296 218.036 280.183 217.949L280.167 217.953L249.353 215.519C248.24 215.431 247.156 215.125 246.161 214.617C245.167 214.109 244.283 213.41 243.559 212.56C242.835 211.709 242.286 210.725 241.943 209.662C241.6 208.599 241.469 207.479 241.56 206.366ZM248.156 137.748L247.946 136.885L248.832 136.804C249.179 136.767 257.375 136.03 263.756 140.59C270.136 145.15 272.093 153.15 272.178 153.485L272.381 154.349L271.496 154.439C270.241 154.532 268.98 154.524 267.726 154.414C263.737 154.18 259.884 152.878 256.57 150.644C250.19 146.084 248.233 138.084 248.156 137.748Z" fill="#1A375A"/>
<path d="M395.673 222.801L385.658 222.011C384.944 221.955 384.237 222.186 383.692 222.652C383.148 223.118 382.81 223.781 382.754 224.496C382.698 225.21 382.927 225.918 383.392 226.464C383.856 227.009 384.518 227.348 385.233 227.406L395.247 228.196C395.962 228.251 396.669 228.02 397.213 227.555C397.758 227.089 398.095 226.426 398.152 225.711C398.208 224.996 397.979 224.288 397.514 223.743C397.049 223.197 396.387 222.859 395.673 222.801Z" fill="#1A375A"/>
<path d="M414.162 224.26L404.147 223.47C403.433 223.415 402.726 223.646 402.182 224.112C401.638 224.578 401.301 225.241 401.244 225.955C401.188 226.669 401.417 227.377 401.882 227.922C402.346 228.468 403.008 228.807 403.721 228.865L413.736 229.655C414.45 229.71 415.157 229.479 415.701 229.013C416.245 228.547 416.582 227.884 416.639 227.17C416.695 226.456 416.466 225.748 416.001 225.203C415.537 224.657 414.875 224.318 414.162 224.26Z" fill="#1A375A"/>
<path d="M396.22 215.864L386.205 215.074C385.491 215.019 384.784 215.25 384.24 215.716C383.696 216.182 383.359 216.845 383.303 217.559C383.246 218.273 383.475 218.981 383.94 219.526C384.404 220.072 385.066 220.411 385.78 220.469L395.794 221.259C396.509 221.315 397.216 221.084 397.76 220.618C398.305 220.152 398.642 219.489 398.699 218.774C398.755 218.06 398.526 217.352 398.061 216.806C397.596 216.261 396.934 215.922 396.22 215.864Z" fill="#1A375A"/>
<path d="M414.709 217.324L404.694 216.533C403.979 216.478 403.272 216.709 402.728 217.175C402.183 217.641 401.846 218.304 401.79 219.018C401.733 219.733 401.963 220.441 402.427 220.986C402.892 221.532 403.554 221.871 404.268 221.928L414.283 222.719C414.998 222.774 415.705 222.543 416.249 222.077C416.794 221.611 417.131 220.948 417.188 220.233C417.244 219.519 417.015 218.811 416.55 218.265C416.085 217.72 415.423 217.381 414.709 217.324Z" fill="#1A375A"/>
<path d="M396.767 208.928L386.752 208.137C386.037 208.082 385.33 208.313 384.786 208.779C384.241 209.245 383.904 209.908 383.847 210.623C383.791 211.337 384.021 212.045 384.485 212.591C384.95 213.136 385.612 213.475 386.326 213.533L396.341 214.323C397.055 214.377 397.762 214.146 398.306 213.681C398.85 213.215 399.187 212.552 399.244 211.838C399.3 211.123 399.071 210.416 398.606 209.87C398.142 209.325 397.48 208.986 396.767 208.928Z" fill="#1A375A"/>
<path d="M415.256 210.387L405.241 209.596C404.527 209.542 403.82 209.773 403.276 210.239C402.732 210.705 402.395 211.367 402.338 212.082C402.282 212.796 402.511 213.504 402.976 214.049C403.44 214.595 404.102 214.933 404.815 214.992L414.83 215.782C415.544 215.837 416.251 215.606 416.795 215.14C417.339 214.674 417.676 214.011 417.733 213.297C417.789 212.582 417.56 211.875 417.095 211.329C416.631 210.784 415.969 210.445 415.256 210.387Z" fill="#1A375A"/>
<path d="M234.852 167.371L234.723 169.01L437.531 184.949L437.66 183.31L234.852 167.371Z" fill="white"/>
<path d="M440.592 159.391L440.465 161.027L433.407 160.473L358.205 154.563L358.341 152.926L433.534 158.837L440.592 159.391Z" fill="#3F3D56"/>
<path d="M192.663 142.011C192.663 142.011 181.684 188.387 195.103 188.387C208.521 188.387 240.237 135.909 240.237 135.909L229.258 122.484L209.553 149.855L208.521 135.909L192.663 142.011Z" fill="#A0616A"/>
<path d="M237.312 137.925C243.21 137.925 247.992 133.141 247.992 127.239C247.992 121.338 243.21 116.554 237.312 116.554C231.413 116.554 226.631 121.338 226.631 127.239C226.631 133.141 231.413 137.925 237.312 137.925Z" fill="#A0616A"/>
<path d="M219.847 102.957L212.528 95.635C212.528 95.635 197.89 104.178 196.67 112.721C195.45 121.264 189.351 148.113 189.351 148.113L211.918 149.944L219.237 138.96L219.847 102.957Z" fill="#E6E6E6"/>
</g>
<defs>
<clipPath id="clip0_312_967">
<rect width="743" height="482" fill="white"/>
</clipPath>
</defs>
</svg>
