<svg width="703" height="380" viewBox="0 0 703 380" fill="none" xmlns="http://www.w3.org/2000/svg">
<rect width="703" height="380" rx="20" fill="white"/>
<line x1="66" y1="175.5" x2="642" y2="175.5" stroke="#F1F1F1"/>
<line x1="66" y1="120.5" x2="642" y2="120.5" stroke="#F1F1F1"/>
<line x1="66" y1="157.5" x2="642" y2="157.5" stroke="#F1F1F1"/>
<line x1="66" y1="194.5" x2="642" y2="194.5" stroke="#F1F1F1"/>
<line x1="66" y1="231.5" x2="642" y2="231.5" stroke="#F1F1F1"/>
<line x1="66" y1="175.5" x2="642" y2="175.5" stroke="#F1F1F1"/>
<rect x="69" y="147" width="16" height="121" rx="3" fill="#EAEAEA"/>
<rect x="147" y="134" width="16" height="134" rx="3" fill="#EAEAEA"/>
<rect x="216" y="122" width="16" height="146" rx="3" fill="#EAEAEA"/>
<rect x="293" y="218" width="16" height="50" rx="3" fill="#EAEAEA"/>
<rect x="594" y="186" width="16" height="82" rx="3" fill="#EAEAEA"/>
<rect x="519" y="112" width="16" height="156" rx="3" fill="#EAEAEA"/>
<rect x="444" y="112" width="16" height="156" rx="3" fill="#EAEAEA"/>
<rect x="371" y="196" width="16" height="72" rx="3" fill="#EAEAEA"/>
<rect x="89" y="112" width="16" height="156" rx="3" fill="#E0E0E0"/>
<rect x="167" y="142" width="16" height="126" rx="3" fill="#E0E0E0"/>
<rect x="236" y="162" width="16" height="106" rx="3" fill="#E0E0E0"/>
<rect x="313" y="202" width="16" height="66" rx="3" fill="#E0E0E0"/>
<rect x="614" y="213" width="16" height="55" rx="3" fill="#E0E0E0"/>
<rect x="539" y="130" width="16" height="138" rx="3" fill="#E0E0E0"/>
<rect x="464" y="175" width="16" height="93" rx="3" fill="#E0E0E0"/>
<rect x="391" y="222" width="16" height="46" rx="3" fill="#E0E0E0"/>
<path d="M36.216 46.288V48H30.296V43.472L29.144 43.824V42.016L30.296 41.664V36.832H32.552V40.944L33.96 40.512V42.336L32.552 42.768V46.288H36.216ZM36.9342 43.536C36.9342 42.64 37.1102 41.8453 37.4622 41.152C37.8249 40.4587 38.3103 39.9253 38.9183 39.552C39.5369 39.1787 40.2249 38.992 40.9823 38.992C41.6436 38.992 42.2196 39.1253 42.7103 39.392C43.2116 39.6587 43.6116 39.9947 43.9103 40.4V39.136H46.1663V48H43.9103V46.704C43.6223 47.12 43.2223 47.4667 42.7103 47.744C42.2089 48.0107 41.6276 48.144 40.9663 48.144C40.2196 48.144 39.5369 47.952 38.9183 47.568C38.3103 47.184 37.8249 46.6453 37.4622 45.952C37.1102 45.248 36.9342 44.4427 36.9342 43.536ZM43.9103 43.568C43.9103 43.024 43.8036 42.56 43.5903 42.176C43.3769 41.7813 43.0889 41.4827 42.7263 41.28C42.3636 41.0667 41.9743 40.96 41.5583 40.96C41.1423 40.96 40.7583 41.0613 40.4062 41.264C40.0543 41.4667 39.7663 41.7653 39.5423 42.16C39.3289 42.544 39.2223 43.0027 39.2223 43.536C39.2223 44.0693 39.3289 44.5387 39.5423 44.944C39.7663 45.3387 40.0543 45.6427 40.4062 45.856C40.7689 46.0693 41.1529 46.176 41.5583 46.176C41.9743 46.176 42.3636 46.0747 42.7263 45.872C43.0889 45.6587 43.3769 45.36 43.5903 44.976C43.8036 44.5813 43.9103 44.112 43.9103 43.568ZM47.778 43.536C47.778 42.64 47.954 41.8453 48.306 41.152C48.6687 40.4587 49.1593 39.9253 49.778 39.552C50.3967 39.1787 51.0847 38.992 51.842 38.992C52.418 38.992 52.9673 39.12 53.49 39.376C54.0127 39.6213 54.4287 39.952 54.738 40.368V36.16H57.01V48H54.738V46.688C54.4607 47.1253 54.0713 47.4773 53.57 47.744C53.0687 48.0107 52.4873 48.144 51.826 48.144C51.0793 48.144 50.3967 47.952 49.778 47.568C49.1593 47.184 48.6687 46.6453 48.306 45.952C47.954 45.248 47.778 44.4427 47.778 43.536ZM54.754 43.568C54.754 43.024 54.6473 42.56 54.434 42.176C54.2207 41.7813 53.9327 41.4827 53.57 41.28C53.2073 41.0667 52.818 40.96 52.402 40.96C51.986 40.96 51.602 41.0613 51.25 41.264C50.898 41.4667 50.61 41.7653 50.386 42.16C50.1727 42.544 50.066 43.0027 50.066 43.536C50.066 44.0693 50.1727 44.5387 50.386 44.944C50.61 45.3387 50.898 45.6427 51.25 45.856C51.6127 46.0693 51.9967 46.176 52.402 46.176C52.818 46.176 53.2073 46.0747 53.57 45.872C53.9327 45.6587 54.2207 45.36 54.434 44.976C54.6473 44.5813 54.754 44.112 54.754 43.568ZM63.1338 48.144C62.2804 48.144 61.5124 47.9573 60.8298 47.584C60.1471 47.2 59.6084 46.6613 59.2138 45.968C58.8298 45.2747 58.6378 44.4747 58.6378 43.568C58.6378 42.6613 58.8351 41.8613 59.2298 41.168C59.6351 40.4747 60.1844 39.9413 60.8778 39.568C61.5711 39.184 62.3444 38.992 63.1978 38.992C64.0511 38.992 64.8244 39.184 65.5178 39.568C66.2111 39.9413 66.7551 40.4747 67.1498 41.168C67.5551 41.8613 67.7578 42.6613 67.7578 43.568C67.7578 44.4747 67.5498 45.2747 67.1337 45.968C66.7284 46.6613 66.1738 47.2 65.4698 47.584C64.7764 47.9573 63.9978 48.144 63.1338 48.144ZM63.1338 46.192C63.5391 46.192 63.9178 46.096 64.2698 45.904C64.6324 45.7013 64.9204 45.4027 65.1338 45.008C65.3471 44.6133 65.4538 44.1333 65.4538 43.568C65.4538 42.7253 65.2298 42.08 64.7818 41.632C64.3444 41.1733 63.8058 40.944 63.1658 40.944C62.5258 40.944 61.9871 41.1733 61.5498 41.632C61.1231 42.08 60.9098 42.7253 60.9098 43.568C60.9098 44.4107 61.1178 45.0613 61.5338 45.52C61.9604 45.968 62.4938 46.192 63.1338 46.192ZM81.6889 39.136L79.0969 48H76.6809L75.0649 41.808L73.4489 48H71.0169L68.4089 39.136H70.6809L72.2489 45.888L73.9449 39.136H76.3129L77.9769 45.872L79.5449 39.136H81.6889ZM82.3249 43.536C82.3249 42.64 82.5009 41.8453 82.8529 41.152C83.2155 40.4587 83.7009 39.9253 84.3089 39.552C84.9275 39.1787 85.6155 38.992 86.3729 38.992C87.0342 38.992 87.6102 39.1253 88.1009 39.392C88.6022 39.6587 89.0022 39.9947 89.3009 40.4V39.136H91.5569V48H89.3009V46.704C89.0129 47.12 88.6129 47.4667 88.1009 47.744C87.5995 48.0107 87.0182 48.144 86.3569 48.144C85.6102 48.144 84.9275 47.952 84.3089 47.568C83.7009 47.184 83.2155 46.6453 82.8529 45.952C82.5009 45.248 82.3249 44.4427 82.3249 43.536ZM89.3009 43.568C89.3009 43.024 89.1942 42.56 88.9809 42.176C88.7675 41.7813 88.4795 41.4827 88.1169 41.28C87.7542 41.0667 87.3649 40.96 86.9489 40.96C86.5329 40.96 86.1489 41.0613 85.7969 41.264C85.4449 41.4667 85.1569 41.7653 84.9329 42.16C84.7195 42.544 84.6129 43.0027 84.6129 43.536C84.6129 44.0693 84.7195 44.5387 84.9329 44.944C85.1569 45.3387 85.4449 45.6427 85.7969 45.856C86.1595 46.0693 86.5435 46.176 86.9489 46.176C87.3649 46.176 87.7542 46.0747 88.1169 45.872C88.4795 45.6587 88.7675 45.36 88.9809 44.976C89.1942 44.5813 89.3009 44.112 89.3009 43.568ZM98.6566 39.008C99.7126 39.008 100.566 39.344 101.217 40.016C101.867 40.6773 102.193 41.6053 102.193 42.8V48H99.9526V43.104C99.9526 42.4 99.7766 41.8613 99.4246 41.488C99.0726 41.104 98.5926 40.912 97.9846 40.912C97.366 40.912 96.8753 41.104 96.5126 41.488C96.1606 41.8613 95.9846 42.4 95.9846 43.104V48H93.7446V39.136H95.9846V40.24C96.2833 39.856 96.662 39.5573 97.1206 39.344C97.59 39.12 98.102 39.008 98.6566 39.008ZM105.459 38.08C105.064 38.08 104.733 37.9573 104.467 37.712C104.211 37.456 104.083 37.1413 104.083 36.768C104.083 36.3947 104.211 36.0853 104.467 35.84C104.733 35.584 105.064 35.456 105.459 35.456C105.853 35.456 106.179 35.584 106.435 35.84C106.701 36.0853 106.835 36.3947 106.835 36.768C106.835 37.1413 106.701 37.456 106.435 37.712C106.179 37.9573 105.853 38.08 105.459 38.08ZM106.563 39.136V48H104.323V39.136H106.563ZM117.016 43.376C117.016 43.696 116.995 43.984 116.952 44.24H110.472C110.525 44.88 110.749 45.3813 111.144 45.744C111.539 46.1067 112.024 46.288 112.6 46.288C113.432 46.288 114.024 45.9307 114.376 45.216H116.792C116.536 46.0693 116.045 46.7733 115.32 47.328C114.595 47.872 113.704 48.144 112.648 48.144C111.795 48.144 111.027 47.9573 110.344 47.584C109.672 47.2 109.144 46.6613 108.76 45.968C108.387 45.2747 108.2 44.4747 108.2 43.568C108.2 42.6507 108.387 41.8453 108.76 41.152C109.133 40.4587 109.656 39.9253 110.328 39.552C111 39.1787 111.773 38.992 112.648 38.992C113.491 38.992 114.243 39.1733 114.904 39.536C115.576 39.8987 116.093 40.416 116.456 41.088C116.829 41.7493 117.016 42.512 117.016 43.376ZM114.696 42.736C114.685 42.16 114.477 41.7013 114.072 41.36C113.667 41.008 113.171 40.832 112.584 40.832C112.029 40.832 111.56 41.0027 111.176 41.344C110.803 41.6747 110.573 42.1387 110.488 42.736H114.696ZM119.643 48.112C119.238 48.112 118.902 47.9893 118.635 47.744C118.379 47.488 118.251 47.1733 118.251 46.8C118.251 46.4267 118.379 46.1173 118.635 45.872C118.902 45.616 119.238 45.488 119.643 45.488C120.038 45.488 120.363 45.616 120.619 45.872C120.875 46.1173 121.003 46.4267 121.003 46.8C121.003 47.1733 120.875 47.488 120.619 47.744C120.363 47.9893 120.038 48.112 119.643 48.112ZM123.799 48.112C123.394 48.112 123.058 47.9893 122.791 47.744C122.535 47.488 122.407 47.1733 122.407 46.8C122.407 46.4267 122.535 46.1173 122.791 45.872C123.058 45.616 123.394 45.488 123.799 45.488C124.194 45.488 124.519 45.616 124.775 45.872C125.031 46.1173 125.159 46.4267 125.159 46.8C125.159 47.1733 125.031 47.488 124.775 47.744C124.519 47.9893 124.194 48.112 123.799 48.112ZM127.955 48.112C127.55 48.112 127.214 47.9893 126.947 47.744C126.691 47.488 126.563 47.1733 126.563 46.8C126.563 46.4267 126.691 46.1173 126.947 45.872C127.214 45.616 127.55 45.488 127.955 45.488C128.35 45.488 128.675 45.616 128.931 45.872C129.187 46.1173 129.315 46.4267 129.315 46.8C129.315 47.1733 129.187 47.488 128.931 47.744C128.675 47.9893 128.35 48.112 127.955 48.112ZM132.112 48.112C131.706 48.112 131.37 47.9893 131.104 47.744C130.848 47.488 130.72 47.1733 130.72 46.8C130.72 46.4267 130.848 46.1173 131.104 45.872C131.37 45.616 131.706 45.488 132.112 45.488C132.506 45.488 132.832 45.616 133.088 45.872C133.344 46.1173 133.472 46.4267 133.472 46.8C133.472 47.1733 133.344 47.488 133.088 47.744C132.832 47.9893 132.506 48.112 132.112 48.112Z" fill="#686868"/>
</svg>
