<svg width="703" height="343" viewBox="0 0 703 343" fill="none" xmlns="http://www.w3.org/2000/svg">
<rect width="703" height="342.522" rx="20" fill="white"/>
<path d="M36.216 43.4882V45.2002H30.296V40.6722L29.144 41.0242V39.2162L30.296 38.8642V34.0322H32.552V38.1442L33.96 37.7122V39.5362L32.552 39.9682V43.4882H36.216ZM36.9342 40.7362C36.9342 39.8402 37.1102 39.0455 37.4622 38.3522C37.8249 37.6589 38.3103 37.1255 38.9183 36.7522C39.5369 36.3789 40.2249 36.1922 40.9823 36.1922C41.6436 36.1922 42.2196 36.3255 42.7103 36.5922C43.2116 36.8589 43.6116 37.1949 43.9103 37.6002V36.3362H46.1663V45.2002H43.9103V43.9042C43.6223 44.3202 43.2223 44.6669 42.7103 44.9442C42.2089 45.2109 41.6276 45.3442 40.9663 45.3442C40.2196 45.3442 39.5369 45.1522 38.9183 44.7682C38.3103 44.3842 37.8249 43.8455 37.4622 43.1522C37.1102 42.4482 36.9342 41.6429 36.9342 40.7362ZM43.9103 40.7682C43.9103 40.2242 43.8036 39.7602 43.5903 39.3762C43.3769 38.9815 43.0889 38.6829 42.7263 38.4802C42.3636 38.2669 41.9743 38.1602 41.5583 38.1602C41.1423 38.1602 40.7583 38.2615 40.4062 38.4642C40.0543 38.6669 39.7663 38.9655 39.5423 39.3602C39.3289 39.7442 39.2223 40.2029 39.2223 40.7362C39.2223 41.2695 39.3289 41.7389 39.5423 42.1442C39.7663 42.5389 40.0543 42.8429 40.4062 43.0562C40.7689 43.2695 41.1529 43.3762 41.5583 43.3762C41.9743 43.3762 42.3636 43.2749 42.7263 43.0722C43.0889 42.8589 43.3769 42.5602 43.5903 42.1762C43.8036 41.7815 43.9103 41.3122 43.9103 40.7682ZM47.778 40.7362C47.778 39.8402 47.954 39.0455 48.306 38.3522C48.6687 37.6589 49.1593 37.1255 49.778 36.7522C50.3967 36.3789 51.0847 36.1922 51.842 36.1922C52.418 36.1922 52.9673 36.3202 53.49 36.5762C54.0127 36.8215 54.4287 37.1522 54.738 37.5682V33.3602H57.01V45.2002H54.738V43.8882C54.4607 44.3255 54.0713 44.6775 53.57 44.9442C53.0687 45.2109 52.4873 45.3442 51.826 45.3442C51.0793 45.3442 50.3967 45.1522 49.778 44.7682C49.1593 44.3842 48.6687 43.8455 48.306 43.1522C47.954 42.4482 47.778 41.6429 47.778 40.7362ZM54.754 40.7682C54.754 40.2242 54.6473 39.7602 54.434 39.3762C54.2207 38.9815 53.9327 38.6829 53.57 38.4802C53.2073 38.2669 52.818 38.1602 52.402 38.1602C51.986 38.1602 51.602 38.2615 51.25 38.4642C50.898 38.6669 50.61 38.9655 50.386 39.3602C50.1727 39.7442 50.066 40.2029 50.066 40.7362C50.066 41.2695 50.1727 41.7389 50.386 42.1442C50.61 42.5389 50.898 42.8429 51.25 43.0562C51.6127 43.2695 51.9967 43.3762 52.402 43.3762C52.818 43.3762 53.2073 43.2749 53.57 43.0722C53.9327 42.8589 54.2207 42.5602 54.434 42.1762C54.6473 41.7815 54.754 41.3122 54.754 40.7682ZM63.1338 45.3442C62.2804 45.3442 61.5124 45.1575 60.8298 44.7842C60.1471 44.4002 59.6084 43.8615 59.2138 43.1682C58.8298 42.4749 58.6378 41.6749 58.6378 40.7682C58.6378 39.8615 58.8351 39.0615 59.2298 38.3682C59.6351 37.6749 60.1844 37.1415 60.8778 36.7682C61.5711 36.3842 62.3444 36.1922 63.1978 36.1922C64.0511 36.1922 64.8244 36.3842 65.5178 36.7682C66.2111 37.1415 66.7551 37.6749 67.1498 38.3682C67.5551 39.0615 67.7578 39.8615 67.7578 40.7682C67.7578 41.6749 67.5498 42.4749 67.1337 43.1682C66.7284 43.8615 66.1738 44.4002 65.4698 44.7842C64.7764 45.1575 63.9978 45.3442 63.1338 45.3442ZM63.1338 43.3922C63.5391 43.3922 63.9178 43.2962 64.2698 43.1042C64.6324 42.9015 64.9204 42.6029 65.1338 42.2082C65.3471 41.8135 65.4538 41.3335 65.4538 40.7682C65.4538 39.9255 65.2298 39.2802 64.7818 38.8322C64.3444 38.3735 63.8058 38.1442 63.1658 38.1442C62.5258 38.1442 61.9871 38.3735 61.5498 38.8322C61.1231 39.2802 60.9098 39.9255 60.9098 40.7682C60.9098 41.6109 61.1178 42.2615 61.5338 42.7202C61.9604 43.1682 62.4938 43.3922 63.1338 43.3922ZM81.6889 36.3362L79.0969 45.2002H76.6809L75.0649 39.0082L73.4489 45.2002H71.0169L68.4089 36.3362H70.6809L72.2489 43.0882L73.9449 36.3362H76.3129L77.9769 43.0722L79.5449 36.3362H81.6889ZM82.3249 40.7362C82.3249 39.8402 82.5009 39.0455 82.8529 38.3522C83.2155 37.6589 83.7009 37.1255 84.3089 36.7522C84.9275 36.3789 85.6155 36.1922 86.3729 36.1922C87.0342 36.1922 87.6102 36.3255 88.1009 36.5922C88.6022 36.8589 89.0022 37.1949 89.3009 37.6002V36.3362H91.5569V45.2002H89.3009V43.9042C89.0129 44.3202 88.6129 44.6669 88.1009 44.9442C87.5995 45.2109 87.0182 45.3442 86.3569 45.3442C85.6102 45.3442 84.9275 45.1522 84.3089 44.7682C83.7009 44.3842 83.2155 43.8455 82.8529 43.1522C82.5009 42.4482 82.3249 41.6429 82.3249 40.7362ZM89.3009 40.7682C89.3009 40.2242 89.1942 39.7602 88.9809 39.3762C88.7675 38.9815 88.4795 38.6829 88.1169 38.4802C87.7542 38.2669 87.3649 38.1602 86.9489 38.1602C86.5329 38.1602 86.1489 38.2615 85.7969 38.4642C85.4449 38.6669 85.1569 38.9655 84.9329 39.3602C84.7195 39.7442 84.6129 40.2029 84.6129 40.7362C84.6129 41.2695 84.7195 41.7389 84.9329 42.1442C85.1569 42.5389 85.4449 42.8429 85.7969 43.0562C86.1595 43.2695 86.5435 43.3762 86.9489 43.3762C87.3649 43.3762 87.7542 43.2749 88.1169 43.0722C88.4795 42.8589 88.7675 42.5602 88.9809 42.1762C89.1942 41.7815 89.3009 41.3122 89.3009 40.7682ZM98.6566 36.2082C99.7126 36.2082 100.566 36.5442 101.217 37.2162C101.867 37.8775 102.193 38.8055 102.193 40.0002V45.2002H99.9526V40.3042C99.9526 39.6002 99.7766 39.0615 99.4246 38.6882C99.0726 38.3042 98.5926 38.1122 97.9846 38.1122C97.366 38.1122 96.8753 38.3042 96.5126 38.6882C96.1606 39.0615 95.9846 39.6002 95.9846 40.3042V45.2002H93.7446V36.3362H95.9846V37.4402C96.2833 37.0562 96.662 36.7575 97.1206 36.5442C97.59 36.3202 98.102 36.2082 98.6566 36.2082ZM105.459 35.2802C105.064 35.2802 104.733 35.1575 104.467 34.9122C104.211 34.6562 104.083 34.3415 104.083 33.9682C104.083 33.5949 104.211 33.2855 104.467 33.0402C104.733 32.7842 105.064 32.6562 105.459 32.6562C105.853 32.6562 106.179 32.7842 106.435 33.0402C106.701 33.2855 106.835 33.5949 106.835 33.9682C106.835 34.3415 106.701 34.6562 106.435 34.9122C106.179 35.1575 105.853 35.2802 105.459 35.2802ZM106.563 36.3362V45.2002H104.323V36.3362H106.563ZM117.016 40.5762C117.016 40.8962 116.995 41.1842 116.952 41.4402H110.472C110.525 42.0802 110.749 42.5815 111.144 42.9442C111.539 43.3069 112.024 43.4882 112.6 43.4882C113.432 43.4882 114.024 43.1309 114.376 42.4162H116.792C116.536 43.2695 116.045 43.9735 115.32 44.5282C114.595 45.0722 113.704 45.3442 112.648 45.3442C111.795 45.3442 111.027 45.1575 110.344 44.7842C109.672 44.4002 109.144 43.8615 108.76 43.1682C108.387 42.4749 108.2 41.6749 108.2 40.7682C108.2 39.8509 108.387 39.0455 108.76 38.3522C109.133 37.6589 109.656 37.1255 110.328 36.7522C111 36.3789 111.773 36.1922 112.648 36.1922C113.491 36.1922 114.243 36.3735 114.904 36.7362C115.576 37.0989 116.093 37.6162 116.456 38.2882C116.829 38.9495 117.016 39.7122 117.016 40.5762ZM114.696 39.9362C114.685 39.3602 114.477 38.9015 114.072 38.5602C113.667 38.2082 113.171 38.0322 112.584 38.0322C112.029 38.0322 111.56 38.2029 111.176 38.5442C110.803 38.8749 110.573 39.3389 110.488 39.9362H114.696ZM119.643 45.3122C119.238 45.3122 118.902 45.1895 118.635 44.9442C118.379 44.6882 118.251 44.3735 118.251 44.0002C118.251 43.6269 118.379 43.3175 118.635 43.0722C118.902 42.8162 119.238 42.6882 119.643 42.6882C120.038 42.6882 120.363 42.8162 120.619 43.0722C120.875 43.3175 121.003 43.6269 121.003 44.0002C121.003 44.3735 120.875 44.6882 120.619 44.9442C120.363 45.1895 120.038 45.3122 119.643 45.3122ZM123.799 45.3122C123.394 45.3122 123.058 45.1895 122.791 44.9442C122.535 44.6882 122.407 44.3735 122.407 44.0002C122.407 43.6269 122.535 43.3175 122.791 43.0722C123.058 42.8162 123.394 42.6882 123.799 42.6882C124.194 42.6882 124.519 42.8162 124.775 43.0722C125.031 43.3175 125.159 43.6269 125.159 44.0002C125.159 44.3735 125.031 44.6882 124.775 44.9442C124.519 45.1895 124.194 45.3122 123.799 45.3122ZM127.955 45.3122C127.55 45.3122 127.214 45.1895 126.947 44.9442C126.691 44.6882 126.563 44.3735 126.563 44.0002C126.563 43.6269 126.691 43.3175 126.947 43.0722C127.214 42.8162 127.55 42.6882 127.955 42.6882C128.35 42.6882 128.675 42.8162 128.931 43.0722C129.187 43.3175 129.315 43.6269 129.315 44.0002C129.315 44.3735 129.187 44.6882 128.931 44.9442C128.675 45.1895 128.35 45.3122 127.955 45.3122ZM132.112 45.3122C131.706 45.3122 131.37 45.1895 131.104 44.9442C130.848 44.6882 130.72 44.3735 130.72 44.0002C130.72 43.6269 130.848 43.3175 131.104 43.0722C131.37 42.8162 131.706 42.6882 132.112 42.6882C132.506 42.6882 132.832 42.8162 133.088 43.0722C133.344 43.3175 133.472 43.6269 133.472 44.0002C133.472 44.3735 133.344 44.6882 133.088 44.9442C132.832 45.1895 132.506 45.3122 132.112 45.3122Z" fill="#686868"/>
<path d="M309 194.483C309 169.902 301.714 147.034 289.2 127.954L189.051 194.483L240.265 303.785C280.894 284.431 309 242.764 309 194.483Z" fill="#E0E0E0"/>
<path d="M70 194.031C70 260.768 123.703 314.87 189.949 314.87C208.27 314.87 225.632 310.732 241.164 303.333L189.949 194.031H70Z" fill="#EEEEEE"/>
<path d="M289.649 128.859C268.187 96.136 231.346 74.5491 189.5 74.5491V195.388L289.649 128.859Z" fill="#E6E6E6"/>
<path d="M190.289 74.5491C160.052 74.5491 132.428 85.8202 111.331 104.419L190.289 195.388V74.5491Z" fill="#EAEAEA"/>
<path d="M111.331 104.419C86.2067 126.569 70 158.207 70 194.483H189.949L111.331 104.419Z" fill="#EEEEEE"/>
<rect x="387" y="95.7048" width="242" height="34.2522" rx="3" fill="url(#paint0_linear_492_1255)"/>
<rect x="387" y="153.128" width="242" height="34.2522" rx="3" fill="url(#paint1_linear_492_1255)"/>
<rect x="387" y="209.543" width="242" height="34.2522" rx="3" fill="url(#paint2_linear_492_1255)"/>
<rect x="387" y="266.966" width="242" height="34.2522" rx="3" fill="url(#paint3_linear_492_1255)"/>
<defs>
<linearGradient id="paint0_linear_492_1255" x1="390" y1="111.488" x2="621.5" y2="111.488" gradientUnits="userSpaceOnUse">
<stop stop-color="#D9D9D9"/>
<stop offset="1" stop-color="#D9D9D9" stop-opacity="0"/>
</linearGradient>
<linearGradient id="paint1_linear_492_1255" x1="390" y1="168.911" x2="621.5" y2="168.911" gradientUnits="userSpaceOnUse">
<stop stop-color="#D9D9D9"/>
<stop offset="1" stop-color="#D9D9D9" stop-opacity="0"/>
</linearGradient>
<linearGradient id="paint2_linear_492_1255" x1="390" y1="225.326" x2="621.5" y2="225.326" gradientUnits="userSpaceOnUse">
<stop stop-color="#D9D9D9"/>
<stop offset="1" stop-color="#D9D9D9" stop-opacity="0"/>
</linearGradient>
<linearGradient id="paint3_linear_492_1255" x1="390" y1="282.749" x2="621.5" y2="282.749" gradientUnits="userSpaceOnUse">
<stop stop-color="#D9D9D9"/>
<stop offset="1" stop-color="#D9D9D9" stop-opacity="0"/>
</linearGradient>
</defs>
</svg>
