<svg width="576" height="156" viewBox="0 0 576 156" fill="none" xmlns="http://www.w3.org/2000/svg">
<line y1="63.5" x2="576" y2="63.5" stroke="#F1F1F1"/>
<line y1="8.5" x2="576" y2="8.5" stroke="#F1F1F1"/>
<line y1="45.5" x2="576" y2="45.5" stroke="#F1F1F1"/>
<line y1="82.5" x2="576" y2="82.5" stroke="#F1F1F1"/>
<line y1="119.5" x2="576" y2="119.5" stroke="#F1F1F1"/>
<line y1="63.5" x2="576" y2="63.5" stroke="#F1F1F1"/>
<rect x="3" y="35" width="16" height="121" rx="3" fill="#EAEAEA"/>
<rect x="81" y="22" width="16" height="134" rx="3" fill="#EAEAEA"/>
<rect x="150" y="10" width="16" height="146" rx="3" fill="#EAEAEA"/>
<rect x="227" y="106" width="16" height="50" rx="3" fill="#EAEAEA"/>
<rect x="528" y="74" width="16" height="82" rx="3" fill="#EAEAEA"/>
<rect x="453" width="16" height="156" rx="3" fill="#EAEAEA"/>
<rect x="378" width="16" height="156" rx="3" fill="#EAEAEA"/>
<rect x="305" y="84" width="16" height="72" rx="3" fill="#EAEAEA"/>
<rect x="23" width="16" height="156" rx="3" fill="#E0E0E0"/>
<rect x="101" y="30" width="16" height="126" rx="3" fill="#E0E0E0"/>
<rect x="170" y="50" width="16" height="106" rx="3" fill="#E0E0E0"/>
<rect x="247" y="90" width="16" height="66" rx="3" fill="#E0E0E0"/>
<rect x="548" y="101" width="16" height="55" rx="3" fill="#E0E0E0"/>
<rect x="473" y="18" width="16" height="138" rx="3" fill="#E0E0E0"/>
<rect x="398" y="63" width="16" height="93" rx="3" fill="#E0E0E0"/>
<rect x="325" y="110" width="16" height="46" rx="3" fill="#E0E0E0"/>
<path d="M229.765 63.482C230.591 63.636 231.27 64.049 231.802 64.721C232.334 65.393 232.6 66.163 232.6 67.031C232.6 67.815 232.404 68.508 232.012 69.11C231.634 69.698 231.081 70.16 230.353 70.496C229.625 70.832 228.764 71 227.77 71H221.449V56.342H227.497C228.491 56.342 229.345 56.503 230.059 56.825C230.787 57.147 231.333 57.595 231.697 58.169C232.075 58.743 232.264 59.394 232.264 60.122C232.264 60.976 232.033 61.69 231.571 62.264C231.123 62.838 230.521 63.244 229.765 63.482ZM224.389 62.39H227.077C227.777 62.39 228.316 62.236 228.694 61.928C229.072 61.606 229.261 61.151 229.261 60.563C229.261 59.975 229.072 59.52 228.694 59.198C228.316 58.876 227.777 58.715 227.077 58.715H224.389V62.39ZM227.35 68.606C228.064 68.606 228.617 68.438 229.009 68.102C229.415 67.766 229.618 67.29 229.618 66.674C229.618 66.044 229.408 65.554 228.988 65.204C228.568 64.84 228.001 64.658 227.287 64.658H224.389V68.606H227.35ZM237.883 61.172C238.261 60.556 238.751 60.073 239.353 59.723C239.969 59.373 240.669 59.198 241.453 59.198V62.285H240.676C239.752 62.285 239.052 62.502 238.576 62.936C238.114 63.37 237.883 64.126 237.883 65.204V71H234.943V59.366H237.883V61.172ZM242.677 65.141C242.677 63.965 242.908 62.922 243.37 62.012C243.846 61.102 244.483 60.402 245.281 59.912C246.093 59.422 246.996 59.177 247.99 59.177C248.858 59.177 249.614 59.352 250.258 59.702C250.916 60.052 251.441 60.493 251.833 61.025V59.366H254.794V71H251.833V69.299C251.455 69.845 250.93 70.3 250.258 70.664C249.6 71.014 248.837 71.189 247.969 71.189C246.989 71.189 246.093 70.937 245.281 70.433C244.483 69.929 243.846 69.222 243.37 68.312C242.908 67.388 242.677 66.331 242.677 65.141ZM251.833 65.183C251.833 64.469 251.693 63.86 251.413 63.356C251.133 62.838 250.755 62.446 250.279 62.18C249.803 61.9 249.292 61.76 248.746 61.76C248.2 61.76 247.696 61.893 247.234 62.159C246.772 62.425 246.394 62.817 246.1 63.335C245.82 63.839 245.68 64.441 245.68 65.141C245.68 65.841 245.82 66.457 246.1 66.989C246.394 67.507 246.772 67.906 247.234 68.186C247.71 68.466 248.214 68.606 248.746 68.606C249.292 68.606 249.803 68.473 250.279 68.207C250.755 67.927 251.133 67.535 251.413 67.031C251.693 66.513 251.833 65.897 251.833 65.183ZM264.554 71L260.606 66.044V71H257.666V55.46H260.606V64.301L264.512 59.366H268.334L263.21 65.204L268.376 71H264.554ZM274.177 65.141C274.177 63.965 274.408 62.922 274.87 62.012C275.346 61.102 275.99 60.402 276.802 59.912C277.614 59.422 278.517 59.177 279.511 59.177C280.267 59.177 280.988 59.345 281.674 59.681C282.36 60.003 282.906 60.437 283.312 60.983V55.46H286.294V71H283.312V69.278C282.948 69.852 282.437 70.314 281.779 70.664C281.121 71.014 280.358 71.189 279.49 71.189C278.51 71.189 277.614 70.937 276.802 70.433C275.99 69.929 275.346 69.222 274.87 68.312C274.408 67.388 274.177 66.331 274.177 65.141ZM283.333 65.183C283.333 64.469 283.193 63.86 282.913 63.356C282.633 62.838 282.255 62.446 281.779 62.18C281.303 61.9 280.792 61.76 280.246 61.76C279.7 61.76 279.196 61.893 278.734 62.159C278.272 62.425 277.894 62.817 277.6 63.335C277.32 63.839 277.18 64.441 277.18 65.141C277.18 65.841 277.32 66.457 277.6 66.989C277.894 67.507 278.272 67.906 278.734 68.186C279.21 68.466 279.714 68.606 280.246 68.606C280.792 68.606 281.303 68.473 281.779 68.207C282.255 67.927 282.633 67.535 282.913 67.031C283.193 66.513 283.333 65.897 283.333 65.183ZM288.41 65.141C288.41 63.965 288.641 62.922 289.103 62.012C289.579 61.102 290.216 60.402 291.014 59.912C291.826 59.422 292.729 59.177 293.723 59.177C294.591 59.177 295.347 59.352 295.991 59.702C296.649 60.052 297.174 60.493 297.566 61.025V59.366H300.527V71H297.566V69.299C297.188 69.845 296.663 70.3 295.991 70.664C295.333 71.014 294.57 71.189 293.702 71.189C292.722 71.189 291.826 70.937 291.014 70.433C290.216 69.929 289.579 69.222 289.103 68.312C288.641 67.388 288.41 66.331 288.41 65.141ZM297.566 65.183C297.566 64.469 297.426 63.86 297.146 63.356C296.866 62.838 296.488 62.446 296.012 62.18C295.536 61.9 295.025 61.76 294.479 61.76C293.933 61.76 293.429 61.893 292.967 62.159C292.505 62.425 292.127 62.817 291.833 63.335C291.553 63.839 291.413 64.441 291.413 65.141C291.413 65.841 291.553 66.457 291.833 66.989C292.127 67.507 292.505 67.906 292.967 68.186C293.443 68.466 293.947 68.606 294.479 68.606C295.025 68.606 295.536 68.473 296.012 68.207C296.488 67.927 296.866 67.535 297.146 67.031C297.426 66.513 297.566 65.897 297.566 65.183ZM309.845 59.198C311.231 59.198 312.351 59.639 313.205 60.521C314.059 61.389 314.486 62.607 314.486 64.175V71H311.546V64.574C311.546 63.65 311.315 62.943 310.853 62.453C310.391 61.949 309.761 61.697 308.963 61.697C308.151 61.697 307.507 61.949 307.031 62.453C306.569 62.943 306.338 63.65 306.338 64.574V71H303.398V59.366H306.338V60.815C306.73 60.311 307.227 59.919 307.829 59.639C308.445 59.345 309.117 59.198 309.845 59.198ZM328.412 59.366L321.209 76.502H318.08L320.6 70.706L315.938 59.366H319.235L322.238 67.493L325.283 59.366H328.412ZM329.241 65.183C329.241 63.979 329.486 62.929 329.976 62.033C330.466 61.123 331.145 60.423 332.013 59.933C332.881 59.429 333.875 59.177 334.995 59.177C336.437 59.177 337.627 59.541 338.565 60.269C339.517 60.983 340.154 61.991 340.476 63.293H337.305C337.137 62.789 336.85 62.397 336.444 62.117C336.052 61.823 335.562 61.676 334.974 61.676C334.134 61.676 333.469 61.984 332.979 62.6C332.489 63.202 332.244 64.063 332.244 65.183C332.244 66.289 332.489 67.15 332.979 67.766C333.469 68.368 334.134 68.669 334.974 68.669C336.164 68.669 336.941 68.137 337.305 67.073H340.476C340.154 68.333 339.517 69.334 338.565 70.076C337.613 70.818 336.423 71.189 334.995 71.189C333.875 71.189 332.881 70.944 332.013 70.454C331.145 69.95 330.466 69.25 329.976 68.354C329.486 67.444 329.241 66.387 329.241 65.183ZM349.182 59.198C350.064 59.198 350.848 59.394 351.534 59.786C352.22 60.164 352.752 60.731 353.13 61.487C353.522 62.229 353.718 63.125 353.718 64.175V71H350.778V64.574C350.778 63.65 350.547 62.943 350.085 62.453C349.623 61.949 348.993 61.697 348.195 61.697C347.383 61.697 346.739 61.949 346.263 62.453C345.801 62.943 345.57 63.65 345.57 64.574V71H342.63V55.46H345.57V60.815C345.948 60.311 346.452 59.919 347.082 59.639C347.712 59.345 348.412 59.198 349.182 59.198Z" fill="black"/>
</svg>
