<svg width="266" height="266" viewBox="0 0 266 266" fill="none" xmlns="http://www.w3.org/2000/svg">
<path d="M266 132.5C266 105.343 257.891 80.08 243.963 59L132.5 132.5L189.5 253.254C234.718 231.872 266 185.839 266 132.5Z" fill="#E0E0E0"/>
<path d="M0 132C0 205.73 59.77 265.5 133.5 265.5C153.891 265.5 173.214 260.928 190.5 252.754L133.5 132H0Z" fill="#EEEEEE"/>
<path d="M244.463 60C220.576 23.8487 179.573 0 133 0V133.5L244.463 60Z" fill="#E6E6E6"/>
<path d="M133.878 0C100.225 0 69.4802 12.452 46 33L133.878 133.5V0Z" fill="#EAEAEA"/>
<path d="M46 33C18.0376 57.4705 0 92.4229 0 132.5H133.5L46 33Z" fill="#EEEEEE"/>
<path d="M76.765 131.482C77.591 131.636 78.27 132.049 78.802 132.721C79.334 133.393 79.6 134.163 79.6 135.031C79.6 135.815 79.404 136.508 79.012 137.11C78.634 137.698 78.081 138.16 77.353 138.496C76.625 138.832 75.764 139 74.77 139H68.449V124.342H74.497C75.491 124.342 76.345 124.503 77.059 124.825C77.787 125.147 78.333 125.595 78.697 126.169C79.075 126.743 79.264 127.394 79.264 128.122C79.264 128.976 79.033 129.69 78.571 130.264C78.123 130.838 77.521 131.244 76.765 131.482ZM71.389 130.39H74.077C74.777 130.39 75.316 130.236 75.694 129.928C76.072 129.606 76.261 129.151 76.261 128.563C76.261 127.975 76.072 127.52 75.694 127.198C75.316 126.876 74.777 126.715 74.077 126.715H71.389V130.39ZM74.35 136.606C75.064 136.606 75.617 136.438 76.009 136.102C76.415 135.766 76.618 135.29 76.618 134.674C76.618 134.044 76.408 133.554 75.988 133.204C75.568 132.84 75.001 132.658 74.287 132.658H71.389V136.606H74.35ZM84.8831 129.172C85.2611 128.556 85.7511 128.073 86.3531 127.723C86.9691 127.373 87.6691 127.198 88.4531 127.198V130.285H87.6761C86.7521 130.285 86.0521 130.502 85.5761 130.936C85.1141 131.37 84.8831 132.126 84.8831 133.204V139H81.9431V127.366H84.8831V129.172ZM89.6774 133.141C89.6774 131.965 89.9084 130.922 90.3704 130.012C90.8464 129.102 91.4834 128.402 92.2814 127.912C93.0934 127.422 93.9964 127.177 94.9904 127.177C95.8584 127.177 96.6144 127.352 97.2584 127.702C97.9164 128.052 98.4414 128.493 98.8334 129.025V127.366H101.794V139H98.8334V137.299C98.4554 137.845 97.9304 138.3 97.2584 138.664C96.6004 139.014 95.8374 139.189 94.9694 139.189C93.9894 139.189 93.0934 138.937 92.2814 138.433C91.4834 137.929 90.8464 137.222 90.3704 136.312C89.9084 135.388 89.6774 134.331 89.6774 133.141ZM98.8334 133.183C98.8334 132.469 98.6934 131.86 98.4134 131.356C98.1334 130.838 97.7554 130.446 97.2794 130.18C96.8034 129.9 96.2924 129.76 95.7464 129.76C95.2004 129.76 94.6964 129.893 94.2344 130.159C93.7724 130.425 93.3944 130.817 93.1004 131.335C92.8204 131.839 92.6804 132.441 92.6804 133.141C92.6804 133.841 92.8204 134.457 93.1004 134.989C93.3944 135.507 93.7724 135.906 94.2344 136.186C94.7104 136.466 95.2144 136.606 95.7464 136.606C96.2924 136.606 96.8034 136.473 97.2794 136.207C97.7554 135.927 98.1334 135.535 98.4134 135.031C98.6934 134.513 98.8334 133.897 98.8334 133.183ZM111.554 139L107.606 134.044V139H104.666V123.46H107.606V132.301L111.512 127.366H115.334L110.21 133.204L115.376 139H111.554ZM121.177 133.141C121.177 131.965 121.408 130.922 121.87 130.012C122.346 129.102 122.99 128.402 123.802 127.912C124.614 127.422 125.517 127.177 126.511 127.177C127.267 127.177 127.988 127.345 128.674 127.681C129.36 128.003 129.906 128.437 130.312 128.983V123.46H133.294V139H130.312V137.278C129.948 137.852 129.437 138.314 128.779 138.664C128.121 139.014 127.358 139.189 126.49 139.189C125.51 139.189 124.614 138.937 123.802 138.433C122.99 137.929 122.346 137.222 121.87 136.312C121.408 135.388 121.177 134.331 121.177 133.141ZM130.333 133.183C130.333 132.469 130.193 131.86 129.913 131.356C129.633 130.838 129.255 130.446 128.779 130.18C128.303 129.9 127.792 129.76 127.246 129.76C126.7 129.76 126.196 129.893 125.734 130.159C125.272 130.425 124.894 130.817 124.6 131.335C124.32 131.839 124.18 132.441 124.18 133.141C124.18 133.841 124.32 134.457 124.6 134.989C124.894 135.507 125.272 135.906 125.734 136.186C126.21 136.466 126.714 136.606 127.246 136.606C127.792 136.606 128.303 136.473 128.779 136.207C129.255 135.927 129.633 135.535 129.913 135.031C130.193 134.513 130.333 133.897 130.333 133.183ZM135.41 133.141C135.41 131.965 135.641 130.922 136.103 130.012C136.579 129.102 137.216 128.402 138.014 127.912C138.826 127.422 139.729 127.177 140.723 127.177C141.591 127.177 142.347 127.352 142.991 127.702C143.649 128.052 144.174 128.493 144.566 129.025V127.366H147.527V139H144.566V137.299C144.188 137.845 143.663 138.3 142.991 138.664C142.333 139.014 141.57 139.189 140.702 139.189C139.722 139.189 138.826 138.937 138.014 138.433C137.216 137.929 136.579 137.222 136.103 136.312C135.641 135.388 135.41 134.331 135.41 133.141ZM144.566 133.183C144.566 132.469 144.426 131.86 144.146 131.356C143.866 130.838 143.488 130.446 143.012 130.18C142.536 129.9 142.025 129.76 141.479 129.76C140.933 129.76 140.429 129.893 139.967 130.159C139.505 130.425 139.127 130.817 138.833 131.335C138.553 131.839 138.413 132.441 138.413 133.141C138.413 133.841 138.553 134.457 138.833 134.989C139.127 135.507 139.505 135.906 139.967 136.186C140.443 136.466 140.947 136.606 141.479 136.606C142.025 136.606 142.536 136.473 143.012 136.207C143.488 135.927 143.866 135.535 144.146 135.031C144.426 134.513 144.566 133.897 144.566 133.183ZM156.845 127.198C158.231 127.198 159.351 127.639 160.205 128.521C161.059 129.389 161.486 130.607 161.486 132.175V139H158.546V132.574C158.546 131.65 158.315 130.943 157.853 130.453C157.391 129.949 156.761 129.697 155.963 129.697C155.151 129.697 154.507 129.949 154.031 130.453C153.569 130.943 153.338 131.65 153.338 132.574V139H150.398V127.366H153.338V128.815C153.73 128.311 154.227 127.919 154.829 127.639C155.445 127.345 156.117 127.198 156.845 127.198ZM175.412 127.366L168.209 144.502H165.08L167.6 138.706L162.938 127.366H166.235L169.238 135.493L172.283 127.366H175.412ZM176.241 133.183C176.241 131.979 176.486 130.929 176.976 130.033C177.466 129.123 178.145 128.423 179.013 127.933C179.881 127.429 180.875 127.177 181.995 127.177C183.437 127.177 184.627 127.541 185.565 128.269C186.517 128.983 187.154 129.991 187.476 131.293H184.305C184.137 130.789 183.85 130.397 183.444 130.117C183.052 129.823 182.562 129.676 181.974 129.676C181.134 129.676 180.469 129.984 179.979 130.6C179.489 131.202 179.244 132.063 179.244 133.183C179.244 134.289 179.489 135.15 179.979 135.766C180.469 136.368 181.134 136.669 181.974 136.669C183.164 136.669 183.941 136.137 184.305 135.073H187.476C187.154 136.333 186.517 137.334 185.565 138.076C184.613 138.818 183.423 139.189 181.995 139.189C180.875 139.189 179.881 138.944 179.013 138.454C178.145 137.95 177.466 137.25 176.976 136.354C176.486 135.444 176.241 134.387 176.241 133.183ZM196.182 127.198C197.064 127.198 197.848 127.394 198.534 127.786C199.22 128.164 199.752 128.731 200.13 129.487C200.522 130.229 200.718 131.125 200.718 132.175V139H197.778V132.574C197.778 131.65 197.547 130.943 197.085 130.453C196.623 129.949 195.993 129.697 195.195 129.697C194.383 129.697 193.739 129.949 193.263 130.453C192.801 130.943 192.57 131.65 192.57 132.574V139H189.63V123.46H192.57V128.815C192.948 128.311 193.452 127.919 194.082 127.639C194.712 127.345 195.412 127.198 196.182 127.198Z" fill="black"/>
</svg>
