<svg width="24" height="24" viewBox="0 0 24 24" fill="none" xmlns="http://www.w3.org/2000/svg">
<mask id="mask0_329_658" style="mask-type:alpha" maskUnits="userSpaceOnUse" x="0" y="0" width="24" height="24">
<rect width="24" height="24" fill="#D9D9D9"/>
</mask>
<g mask="url(#mask0_329_658)">
<path d="M11.997 19.0002C11.76 19.0002 11.5624 18.9204 11.4041 18.7607C11.2457 18.6009 11.1666 18.403 11.1666 18.1669V12.8336H5.8332C5.5971 12.8336 5.39919 12.7534 5.23945 12.5931C5.07974 12.4329 4.99988 12.2343 4.99988 11.9973C4.99988 11.7604 5.07974 11.5628 5.23945 11.4044C5.39919 11.2461 5.5971 11.1669 5.8332 11.1669H11.1666V5.83357C11.1666 5.59747 11.2467 5.39955 11.407 5.23982C11.5673 5.0801 11.7659 5.00024 12.0028 5.00024C12.2397 5.00024 12.4374 5.0801 12.5957 5.23982C12.754 5.39955 12.8332 5.59747 12.8332 5.83357V11.1669H18.1666C18.4027 11.1669 18.6006 11.2471 18.7603 11.4073C18.92 11.5676 18.9999 11.7662 18.9999 12.0032C18.9999 12.2401 18.92 12.4377 18.7603 12.5961C18.6006 12.7544 18.4027 12.8336 18.1666 12.8336H12.8332V18.1669C12.8332 18.403 12.7531 18.6009 12.5928 18.7607C12.4325 18.9204 12.2339 19.0002 11.997 19.0002Z" fill="black"/>
</g>
</svg>
