<svg width="24" height="25" viewBox="0 0 24 25" fill="none" xmlns="http://www.w3.org/2000/svg">
<mask id="mask0_303_1315" style="mask-type:alpha" maskUnits="userSpaceOnUse" x="0" y="0" width="24" height="25">
<rect y="0.0800781" width="24" height="24" fill="#D9D9D9"/>
</mask>
<g mask="url(#mask0_303_1315)">
<path d="M10 13.6801L15.9 7.78013C16.0834 7.59679 16.3167 7.50513 16.6 7.50513C16.8834 7.50513 17.1167 7.59679 17.3 7.78013C17.4834 7.96346 17.575 8.19679 17.575 8.48013C17.575 8.76346 17.4834 8.99679 17.3 9.18013L10.7 15.7801C10.5 15.9801 10.2667 16.0801 10 16.0801C9.73338 16.0801 9.50005 15.9801 9.30005 15.7801L6.70005 13.1801C6.51672 12.9968 6.42505 12.7635 6.42505 12.4801C6.42505 12.1968 6.51672 11.9635 6.70005 11.7801C6.88338 11.5968 7.11672 11.5051 7.40005 11.5051C7.68338 11.5051 7.91672 11.5968 8.10005 11.7801L10 13.6801Z" fill="white"/>
</g>
</svg>
