<svg width="24" height="25" viewBox="0 0 24 25" fill="none" xmlns="http://www.w3.org/2000/svg">
<path d="M20 8.92005L14 3.66005C13.45 3.1681 12.7379 2.89612 12 2.89612C11.262 2.89612 10.55 3.1681 9.99997 3.66005L3.99997 8.92005C3.68234 9.20412 3.42887 9.55261 3.25644 9.94229C3.08402 10.332 2.99659 10.7539 2.99997 11.18V19.92C2.99997 20.7157 3.31604 21.4788 3.87865 22.0414C4.44126 22.604 5.20432 22.92 5.99997 22.92H18C18.7956 22.92 19.5587 22.604 20.1213 22.0414C20.6839 21.4788 21 20.7157 21 19.92V11.17C21.0019 10.7456 20.9138 10.3256 20.7414 9.93773C20.5691 9.54987 20.3163 9.20301 20 8.92005ZM14 20.92H9.99997V15.92C9.99997 15.6548 10.1053 15.4005 10.2929 15.2129C10.4804 15.0254 10.7348 14.92 11 14.92H13C13.2652 14.92 13.5195 15.0254 13.7071 15.2129C13.8946 15.4005 14 15.6548 14 15.92V20.92ZM19 19.92C19 20.1853 18.8946 20.4396 18.7071 20.6272C18.5195 20.8147 18.2652 20.92 18 20.92H16V15.92C16 15.1244 15.6839 14.3613 15.1213 13.7987C14.5587 13.2361 13.7956 12.92 13 12.92H11C10.2043 12.92 9.44126 13.2361 8.87865 13.7987C8.31604 14.3613 7.99997 15.1244 7.99997 15.92V20.92H5.99997C5.73476 20.92 5.4804 20.8147 5.29287 20.6272C5.10533 20.4396 4.99997 20.1853 4.99997 19.92V11.17C5.00015 11.0281 5.03057 10.8877 5.08919 10.7584C5.14781 10.6291 5.2333 10.5138 5.33997 10.4201L11.34 5.17005C11.5225 5.00973 11.7571 4.92132 12 4.92132C12.2429 4.92132 12.4775 5.00973 12.66 5.17005L18.66 10.4201C18.7666 10.5138 18.8521 10.6291 18.9108 10.7584C18.9694 10.8877 18.9998 11.0281 19 11.17V19.92Z" fill="black"/>
</svg>
