<svg width="24" height="24" viewBox="0 0 24 24" fill="none" xmlns="http://www.w3.org/2000/svg">
<path d="M20.9999 13.0001C20.7347 13.0001 20.4804 12.8947 20.2928 12.7072C20.1053 12.5196 19.9999 12.2653 19.9999 12.0001L19.9999 9.41006L13.7099 15.7101C13.617 15.8038 13.5064 15.8782 13.3845 15.9289C13.2627 15.9797 13.132 16.0059 12.9999 16.0059C12.8679 16.0059 12.7372 15.9797 12.6154 15.9289C12.4935 15.8782 12.3829 15.8038 12.2899 15.7101L8.99994 12.4101L3.70994 17.7101C3.52164 17.8984 3.26624 18.0042 2.99994 18.0042C2.73364 18.0042 2.47824 17.8984 2.28994 17.7101C2.10164 17.5218 1.99585 17.2664 1.99585 17.0001C1.99585 16.7338 2.10164 16.4784 2.28994 16.2901L8.28994 10.2901C8.3829 10.1963 8.4935 10.1219 8.61536 10.0712C8.73722 10.0204 8.86793 9.99426 8.99994 9.99426C9.13195 9.99426 9.26266 10.0204 9.38452 10.0712C9.50638 10.1219 9.61698 10.1963 9.70994 10.2901L12.9999 13.5901L18.5899 8.00006L15.9999 8.00006C15.7347 8.00006 15.4804 7.8947 15.2928 7.70717C15.1053 7.51963 14.9999 7.26527 14.9999 7.00006C14.9999 6.73484 15.1053 6.48049 15.2928 6.29295C15.4804 6.10541 15.7347 6.00006 15.9999 6.00006L20.9999 6.00006C21.1306 6.00164 21.2597 6.02882 21.3799 6.08006C21.6243 6.18153 21.8185 6.37571 21.9199 6.62006C21.9712 6.74028 21.9984 6.86938 21.9999 7.00006L21.9999 12.0001C21.9999 12.2653 21.8946 12.5196 21.707 12.7072C21.5195 12.8947 21.2652 13.0001 20.9999 13.0001Z" fill="black"/>
</svg>
