<svg width="24" height="24" viewBox="0 0 24 24" fill="none" xmlns="http://www.w3.org/2000/svg">
<path d="M4.78998 10.4999H2.78998C2.52476 10.4999 2.27041 10.6053 2.08287 10.7928C1.89533 10.9803 1.78998 11.2347 1.78998 11.4999C1.78998 11.7651 1.89533 12.0195 2.08287 12.207C2.27041 12.3945 2.52476 12.4999 2.78998 12.4999H4.78998C5.05519 12.4999 5.30955 12.3945 5.49708 12.207C5.68462 12.0195 5.78998 11.7651 5.78998 11.4999C5.78998 11.2347 5.68462 10.9803 5.49708 10.7928C5.30955 10.6053 5.05519 10.4999 4.78998 10.4999ZM21.57 7.6599V7.5999C21.2835 7.24969 20.9214 6.96882 20.511 6.77833C20.1006 6.58784 19.6524 6.49265 19.2 6.4999H11.27C10.5352 6.4933 9.82352 6.75661 9.26998 7.2399C8.75298 7.69543 8.41307 8.3186 8.30998 8.9999L7.42998 13.9999C7.3543 14.4317 7.37418 14.8748 7.48821 15.2981C7.60224 15.7214 7.80765 16.1145 8.08998 16.4499C8.37084 16.7841 8.72126 17.053 9.11679 17.2378C9.51231 17.4227 9.94341 17.5189 10.38 17.5199H18.32C19.0332 17.5307 19.727 17.287 20.2768 16.8325C20.8266 16.378 21.1964 15.7424 21.32 15.0399L22.2 10.0399C22.2693 9.6212 22.249 9.19256 22.1404 8.78229C22.0318 8.37203 21.8374 7.98947 21.57 7.6599ZM18.83 8.4999L15.43 11.2599C15.229 11.4219 14.9731 11.4999 14.7158 11.4775C14.4586 11.4552 14.22 11.3342 14.05 11.1399L11.72 8.4999H18.83ZM19.31 14.6699C19.2695 14.9047 19.1465 15.1173 18.9632 15.2695C18.7798 15.4217 18.5482 15.5034 18.31 15.4999H10.38C10.2348 15.4987 10.0915 15.4658 9.9603 15.4037C9.82905 15.3415 9.71292 15.2515 9.61998 15.1399C9.5268 15.0289 9.45887 14.899 9.42088 14.7591C9.38289 14.6192 9.37576 14.4728 9.39998 14.3299L10.2 9.7999L12.55 12.4599C13.0615 13.0413 13.778 13.4023 14.5496 13.4676C15.3212 13.5328 16.0881 13.2971 16.69 12.8099L20.13 9.9999L19.31 14.6699ZM5.78998 6.4999H2.78998C2.52476 6.4999 2.27041 6.60525 2.08287 6.79279C1.89533 6.98033 1.78998 7.23468 1.78998 7.4999C1.78998 7.76511 1.89533 8.01947 2.08287 8.207C2.27041 8.39454 2.52476 8.4999 2.78998 8.4999H5.78998C6.05519 8.4999 6.30955 8.39454 6.49708 8.207C6.68462 8.01947 6.78998 7.76511 6.78998 7.4999C6.78998 7.23468 6.68462 6.98033 6.49708 6.79279C6.30955 6.60525 6.05519 6.4999 5.78998 6.4999Z" fill="black"/>
</svg>
