<svg width="24" height="24" viewBox="0 0 24 24" fill="none" xmlns="http://www.w3.org/2000/svg">
<path d="M2.50003 8.85988L11.5 14.0599C11.6521 14.1477 11.8245 14.1939 12 14.1939C12.1756 14.1939 12.348 14.1477 12.5 14.0599L21.5 8.85988C21.6512 8.77263 21.7768 8.64734 21.8646 8.49647C21.9523 8.3456 21.999 8.1744 22 7.99988C22.0007 7.82367 21.9549 7.65041 21.8671 7.49763C21.7792 7.34485 21.6526 7.21799 21.5 7.12988L12.5 1.93988C12.348 1.85211 12.1756 1.80591 12 1.80591C11.8245 1.80591 11.6521 1.85211 11.5 1.93988L2.50003 7.12988C2.34743 7.21799 2.22081 7.34485 2.13301 7.49763C2.04521 7.65041 1.99933 7.82367 2.00003 7.99988C2.00108 8.1744 2.04779 8.3456 2.13551 8.49647C2.22322 8.64734 2.34889 8.77263 2.50003 8.85988ZM12 3.99988L19 7.99988L12 11.9999L5.00003 7.99988L12 3.99988ZM20.5 11.1699L12 15.9999L3.50003 11.1299C3.3859 11.0638 3.25981 11.0209 3.12903 11.0037C2.99825 10.9865 2.86537 10.9954 2.73803 11.0298C2.61069 11.0642 2.49141 11.1234 2.38706 11.2041C2.28271 11.2848 2.19536 11.3853 2.13003 11.4999C1.99966 11.7295 1.96539 12.0014 2.03471 12.2561C2.10403 12.5109 2.2713 12.728 2.50003 12.8599L11.5 18.0599C11.6521 18.1477 11.8245 18.1939 12 18.1939C12.1756 18.1939 12.348 18.1477 12.5 18.0599L21.5 12.8599C21.7288 12.728 21.896 12.5109 21.9654 12.2561C22.0347 12.0014 22.0004 11.7295 21.87 11.4999C21.8047 11.3853 21.7173 11.2848 21.613 11.2041C21.5087 11.1234 21.3894 11.0642 21.262 11.0298C21.1347 10.9954 21.0018 10.9865 20.871 11.0037C20.7402 11.0209 20.6142 11.0638 20.5 11.1299V11.1699ZM20.5 15.1699L12 19.9999L3.50003 15.1299C3.3859 15.0638 3.25981 15.0209 3.12903 15.0037C2.99825 14.9865 2.86537 14.9954 2.73803 15.0298C2.61069 15.0642 2.49141 15.1234 2.38706 15.2041C2.28271 15.2848 2.19536 15.3853 2.13003 15.4999C1.99966 15.7295 1.96539 16.0014 2.03471 16.2561C2.10403 16.5109 2.2713 16.728 2.50003 16.8599L11.5 22.0599C11.6521 22.1477 11.8245 22.1939 12 22.1939C12.1756 22.1939 12.348 22.1477 12.5 22.0599L21.5 16.8599C21.7288 16.728 21.896 16.5109 21.9654 16.2561C22.0347 16.0014 22.0004 15.7295 21.87 15.4999C21.8047 15.3853 21.7173 15.2848 21.613 15.2041C21.5087 15.1234 21.3894 15.0642 21.262 15.0298C21.1347 14.9954 21.0018 14.9865 20.871 15.0037C20.7402 15.0209 20.6142 15.0638 20.5 15.1299V15.1699Z" fill="black"/>
</svg>
