<svg width="20" height="20" viewBox="0 0 20 20" fill="none" xmlns="http://www.w3.org/2000/svg">
<path d="M17.1166 5.24163L15.8333 3.95829L14.6583 2.78329C14.5806 2.70559 14.4884 2.64396 14.3868 2.60191C14.2853 2.55986 14.1765 2.53822 14.0666 2.53822C13.9567 2.53822 13.8479 2.55986 13.7464 2.60191C13.6449 2.64396 13.5527 2.70559 13.475 2.78329C13.3973 2.86099 13.3356 2.95323 13.2936 3.05475C13.2515 3.15627 13.2299 3.26508 13.2299 3.37496C13.2299 3.48484 13.2515 3.59365 13.2936 3.69517C13.3356 3.79669 13.3973 3.88893 13.475 3.96663L14.3083 4.79996L13.6166 6.87496C13.4704 7.31581 13.4498 7.78869 13.5572 8.24057C13.6647 8.69245 13.8959 9.10547 14.225 9.43329L16.6833 11.9333V15.8333C16.6833 16.0543 16.5955 16.2663 16.4392 16.4225C16.2829 16.5788 16.071 16.6666 15.85 16.6666C15.6289 16.6666 15.417 16.5788 15.2607 16.4225C15.1044 16.2663 15.0166 16.0543 15.0166 15.8333V14.1666C15.0166 13.5036 14.7532 12.8677 14.2844 12.3989C13.8156 11.93 13.1797 11.6666 12.5166 11.6666H11.6666V4.16663C11.6666 3.50358 11.4032 2.8677 10.9344 2.39886C10.4656 1.93002 9.82967 1.66663 9.16663 1.66663H4.16663C3.50358 1.66663 2.8677 1.93002 2.39886 2.39886C1.93002 2.8677 1.66663 3.50358 1.66663 4.16663V15.8333C1.66663 16.4963 1.93002 17.1322 2.39886 17.6011C2.8677 18.0699 3.50358 18.3333 4.16663 18.3333H9.16663C9.82967 18.3333 10.4656 18.0699 10.9344 17.6011C11.4032 17.1322 11.6666 16.4963 11.6666 15.8333V13.3333H12.5C12.721 13.3333 12.9329 13.4211 13.0892 13.5774C13.2455 13.7336 13.3333 13.9456 13.3333 14.1666V15.8333C13.3333 16.4963 13.5967 17.1322 14.0655 17.6011C14.5344 18.0699 15.1703 18.3333 15.8333 18.3333C16.4963 18.3333 17.1322 18.0699 17.6011 17.6011C18.0699 17.1322 18.3333 16.4963 18.3333 15.8333V8.19163C18.3343 7.64408 18.2273 7.10172 18.0186 6.59554C17.8098 6.08936 17.5033 5.62928 17.1166 5.24163ZM9.99996 15.8333C9.99996 16.0543 9.91216 16.2663 9.75588 16.4225C9.5996 16.5788 9.38764 16.6666 9.16663 16.6666H4.16663C3.94561 16.6666 3.73365 16.5788 3.57737 16.4225C3.42109 16.2663 3.33329 16.0543 3.33329 15.8333V9.99996H9.99996V15.8333ZM9.99996 8.33329H3.33329V4.16663C3.33329 3.94561 3.42109 3.73365 3.57737 3.57737C3.73365 3.42109 3.94561 3.33329 4.16663 3.33329H9.16663C9.38764 3.33329 9.5996 3.42109 9.75588 3.57737C9.91216 3.73365 9.99996 3.94561 9.99996 4.16663V8.33329ZM16.6666 9.51663L15.3833 8.23329C15.2776 8.12552 15.2032 7.99108 15.168 7.84431C15.1327 7.69754 15.138 7.54395 15.1833 7.39996L15.6083 6.11663L15.9333 6.44996C16.3962 6.91221 16.6595 7.53748 16.6666 8.19163V9.51663Z" fill="black"/>
</svg>
