<svg width="20" height="20" viewBox="0 0 20 20" fill="none" xmlns="http://www.w3.org/2000/svg">
<path d="M18.0416 1.86671C17.9508 1.78876 17.8442 1.73129 17.7292 1.69821C17.6141 1.66514 17.4933 1.65724 17.375 1.67504L6.54163 3.34171C6.34434 3.37164 6.16435 3.47137 6.03436 3.62276C5.90438 3.77416 5.83303 3.96717 5.83329 4.16671V12.7917C5.44393 12.6015 5.01662 12.5018 4.58329 12.5C4.00643 12.5 3.44252 12.6711 2.96288 12.9916C2.48324 13.3121 2.1094 13.7676 1.88865 14.3006C1.66789 14.8335 1.61013 15.4199 1.72267 15.9857C1.83521 16.5515 2.113 17.0712 2.5209 17.4791C2.9288 17.887 3.4485 18.1648 4.01428 18.2773C4.58006 18.3899 5.1665 18.3321 5.69945 18.1114C6.23241 17.8906 6.68793 17.5168 7.00841 17.0371C7.3289 16.5575 7.49996 15.9936 7.49996 15.4167V9.05004L16.6666 7.64171V11.125C16.2773 10.9349 15.8499 10.8352 15.4166 10.8334C14.8398 10.8334 14.2759 11.0044 13.7962 11.3249C13.3166 11.6454 12.9427 12.1009 12.722 12.6339C12.5012 13.1668 12.4435 13.7533 12.556 14.3191C12.6685 14.8848 12.9463 15.4045 13.3542 15.8124C13.7621 16.2203 14.2818 16.4981 14.8476 16.6107C15.4134 16.7232 15.9998 16.6654 16.5328 16.4447C17.0657 16.2239 17.5213 15.8501 17.8417 15.3705C18.1622 14.8908 18.3333 14.3269 18.3333 13.75V2.50004C18.3333 2.37968 18.3072 2.26074 18.2569 2.15141C18.2065 2.04208 18.1331 1.94495 18.0416 1.86671ZM4.58329 16.6667C4.33607 16.6667 4.09439 16.5934 3.88883 16.456C3.68327 16.3187 3.52305 16.1235 3.42844 15.8951C3.33383 15.6667 3.30908 15.4153 3.35731 15.1728C3.40554 14.9304 3.52459 14.7076 3.69941 14.5328C3.87423 14.358 4.09695 14.239 4.33943 14.1907C4.58191 14.1425 4.83324 14.1673 5.06165 14.2619C5.29006 14.3565 5.48528 14.5167 5.62263 14.7222C5.75998 14.9278 5.83329 15.1695 5.83329 15.4167C5.83329 15.7482 5.7016 16.0662 5.46718 16.3006C5.23276 16.535 4.91481 16.6667 4.58329 16.6667ZM15.4166 15C15.1694 15 14.9277 14.9267 14.7222 14.7894C14.5166 14.652 14.3564 14.4568 14.2618 14.2284C14.1672 14 14.1424 13.7487 14.1906 13.5062C14.2389 13.2637 14.3579 13.041 14.5327 12.8662C14.7076 12.6913 14.9303 12.5723 15.1728 12.5241C15.4152 12.4758 15.6666 12.5006 15.895 12.5952C16.1234 12.6898 16.3186 12.85 16.456 13.0556C16.5933 13.2611 16.6666 13.5028 16.6666 13.75C16.6666 14.0816 16.5349 14.3995 16.3005 14.6339C16.0661 14.8683 15.7481 15 15.4166 15ZM16.6666 5.95004L7.49996 7.35838V4.85838L16.6666 3.47504V5.95004Z" fill="black"/>
</svg>
