<svg width="20" height="20" viewBox="0 0 20 20" fill="none" xmlns="http://www.w3.org/2000/svg">
<g clip-path="url(#clip0_303_1126)">
<path d="M18.3334 4.16671H1.66671C1.44569 4.16671 1.23373 4.25451 1.07745 4.41079C0.921171 4.56707 0.833374 4.77903 0.833374 5.00004V8.33337C0.834824 8.84916 0.995773 9.35188 1.29416 9.7726C1.59254 10.1933 2.01375 10.5114 2.50004 10.6834V18.3334C2.50004 18.5544 2.58784 18.7664 2.74412 18.9226C2.9004 19.0789 3.11236 19.1667 3.33337 19.1667H16.6667C16.8877 19.1667 17.0997 19.0789 17.256 18.9226C17.4122 18.7664 17.5 18.5544 17.5 18.3334V10.6834C17.9863 10.5114 18.4075 10.1933 18.7059 9.7726C19.0043 9.35188 19.1653 8.84916 19.1667 8.33337V5.00004C19.1667 4.77903 19.0789 4.56707 18.9226 4.41079C18.7664 4.25451 18.5544 4.16671 18.3334 4.16671ZM12.5 5.83337H14.1667V8.33337C14.1667 8.55439 14.0789 8.76635 13.9226 8.92263C13.7664 9.07891 13.5544 9.16671 13.3334 9.16671C13.1124 9.16671 12.9004 9.07891 12.7441 8.92263C12.5878 8.76635 12.5 8.55439 12.5 8.33337V5.83337ZM9.16671 5.83337H10.8334V8.33337C10.8334 8.55439 10.7456 8.76635 10.5893 8.92263C10.433 9.07891 10.2211 9.16671 10 9.16671C9.77903 9.16671 9.56707 9.07891 9.41079 8.92263C9.25451 8.76635 9.16671 8.55439 9.16671 8.33337V5.83337ZM5.83337 5.83337H7.50004V8.33337C7.50004 8.55439 7.41224 8.76635 7.25596 8.92263C7.09968 9.07891 6.88772 9.16671 6.66671 9.16671C6.44569 9.16671 6.23373 9.07891 6.07745 8.92263C5.92117 8.76635 5.83337 8.55439 5.83337 8.33337V5.83337ZM3.33337 9.16671C3.11236 9.16671 2.9004 9.07891 2.74412 8.92263C2.58784 8.76635 2.50004 8.55439 2.50004 8.33337V5.83337H4.16671V8.33337C4.16671 8.55439 4.07891 8.76635 3.92263 8.92263C3.76635 9.07891 3.55439 9.16671 3.33337 9.16671ZM11.6667 17.5H8.33337V15.8334C8.33337 15.3913 8.50897 14.9674 8.82153 14.6549C9.13409 14.3423 9.55801 14.1667 10 14.1667C10.4421 14.1667 10.866 14.3423 11.1786 14.6549C11.4911 14.9674 11.6667 15.3913 11.6667 15.8334V17.5ZM15.8334 17.5H13.3334V15.8334C13.3334 14.9493 12.9822 14.1015 12.3571 13.4764C11.7319 12.8512 10.8841 12.5 10 12.5C9.11599 12.5 8.26814 12.8512 7.64302 13.4764C7.0179 14.1015 6.66671 14.9493 6.66671 15.8334V17.5H4.16671V10.6834C4.47302 10.5697 4.75557 10.4001 5.00004 10.1834C5.45839 10.5933 6.05176 10.82 6.66671 10.82C7.28165 10.82 7.87502 10.5933 8.33337 10.1834C8.79173 10.5933 9.3851 10.82 10 10.82C10.615 10.82 11.2084 10.5933 11.6667 10.1834C12.1251 10.5933 12.7184 10.82 13.3334 10.82C13.9483 10.82 14.5417 10.5933 15 10.1834C15.2445 10.4001 15.5271 10.5697 15.8334 10.6834V17.5ZM17.5 8.33337C17.5 8.55439 17.4122 8.76635 17.256 8.92263C17.0997 9.07891 16.8877 9.16671 16.6667 9.16671C16.4457 9.16671 16.2337 9.07891 16.0775 8.92263C15.9212 8.76635 15.8334 8.55439 15.8334 8.33337V5.83337H17.5V8.33337ZM3.58337 2.50004H16.6667C16.8877 2.50004 17.0997 2.41224 17.256 2.25596C17.4122 2.09968 17.5 1.88772 17.5 1.66671C17.5 1.44569 17.4122 1.23373 17.256 1.07745C17.0997 0.921171 16.8877 0.833374 16.6667 0.833374H3.58337C3.36236 0.833374 3.1504 0.921171 2.99412 1.07745C2.83784 1.23373 2.75004 1.44569 2.75004 1.66671C2.75004 1.88772 2.83784 2.09968 2.99412 2.25596C3.1504 2.41224 3.36236 2.50004 3.58337 2.50004Z" fill="black"/>
</g>
<defs>
<clipPath id="clip0_303_1126">
<rect width="20" height="20" fill="white"/>
</clipPath>
</defs>
</svg>
